<svg width="38" height="23" viewBox="0 0 38 23" fill="none" xmlns="http://www.w3.org/2000/svg">
<path d="M15.0222 10.5001C15.0222 10.5001 18.4809 10.2394 18.4809 6.12393C18.4809 2.0084 15.6511 0 12.0666 0H5.46874H5.2749H0.271606V22.9991H5.2749H5.46874H12.0666C12.0666 22.9991 19.267 23.2294 19.267 16.2108C19.267 16.2108 19.5814 10.5001 15.0222 10.5001ZM5.46874 4.08757H11.2176H12.0666C12.0666 4.08757 13.6701 4.08757 13.6701 6.48031C13.6701 8.87306 12.7268 9.22 11.6578 9.22H5.46874V4.08757ZM11.7625 18.9116H5.46874V12.7652H12.0666C12.0666 12.7652 14.4562 12.7334 14.4562 15.9236C14.4562 18.5836 12.7084 18.8849 11.7625 18.9116Z" fill="#8F9BC1"/>
<path d="M29.1621 6C20.2716 6 20.2795 14.5183 20.2795 14.5183C20.2795 14.5183 19.6694 22.9937 29.1623 22.9937C29.1623 22.9937 37.0733 23.427 37.0733 17.0979H33.0047C33.0047 17.0979 33.1403 19.4819 29.2979 19.4819C29.2979 19.4819 25.2293 19.7428 25.2293 15.6241H37.2088C37.2088 15.6241 38.5195 6 29.1621 6ZM32.7784 12.6649H25.184C25.184 12.6649 25.6812 9.24729 29.2525 9.24729C32.8239 9.24729 32.7784 12.6649 32.7784 12.6649Z" fill="#8F9BC1"/>
<path d="M34.2716 1H24.2716V4H34.2716V1Z" fill="#8F9BC1"/>
</svg>
