<svg width="39" height="38" viewBox="0 0 39 38" fill="none" xmlns="http://www.w3.org/2000/svg">
<path fill-rule="evenodd" clip-rule="evenodd" d="M19.3231 38C8.8638 38 0.306152 29.45 0.306152 19C0.306152 8.55 8.8638 0 19.3231 0C29.7825 0 38.3401 8.55 38.3401 19C38.3401 29.45 29.7825 38 19.3231 38ZM35.3687 21.6125C34.8339 21.4344 30.3173 20.1281 25.266 20.9C27.4054 26.7188 28.2374 31.4688 28.4156 32.4781C32.0408 30.0438 34.6556 26.125 35.3687 21.6125ZM25.682 33.9625C25.4442 32.5375 24.4934 27.55 22.2351 21.6719C22.1757 21.6719 22.1757 21.6719 22.1163 21.7312C12.9643 24.9375 9.63636 31.2906 9.39865 31.8844C12.1323 34.0219 15.6386 35.3281 19.3826 35.3281C21.5814 35.2687 23.7208 34.7938 25.682 33.9625ZM7.25924 29.8656C7.61581 29.2125 12.0729 21.85 20.4523 19.1781C20.69 19.1187 20.8683 19.0594 21.106 19C20.69 18.05 20.274 17.1594 19.7986 16.2687C11.7163 18.7031 3.81241 18.5844 3.09927 18.5844C3.09927 18.7625 3.09927 18.9406 3.09927 19.0594C3.09927 23.2156 4.6444 27.0156 7.25924 29.8656ZM3.39641 15.675C4.10955 15.675 10.8249 15.7344 18.4317 13.7156C15.7575 8.96562 12.8455 4.92812 12.4295 4.33437C7.85352 6.47188 4.46612 10.6875 3.39641 15.675ZM15.5197 3.26562C15.9952 3.85938 18.9072 7.89687 21.5814 12.7656C27.3459 10.6281 29.7825 7.30313 30.0796 6.8875C27.2271 4.33437 23.4237 2.79062 19.3231 2.79062C18.0157 2.79062 16.7677 2.96875 15.5197 3.26562ZM31.9219 8.7875C31.5653 9.2625 28.8316 12.7656 22.8294 15.2C23.186 15.9719 23.5425 16.7437 23.8991 17.575C24.018 17.8719 24.1368 18.1094 24.2557 18.4062C29.6636 17.7531 35.0122 18.8219 35.547 18.9406C35.547 15.0219 34.1802 11.5188 31.9219 8.7875Z" fill="white" fill-opacity="0.5"/>
</svg>
