<svg width="37" height="37" viewBox="0 0 37 37" fill="none" xmlns="http://www.w3.org/2000/svg">
<path d="M18.5064 3.24999C23.3265 3.24999 23.8974 3.26859 25.8015 3.35539C27.8561 3.44895 29.7624 3.85985 31.2292 5.3259C32.696 6.79138 33.1072 8.69594 33.2014 10.7487C33.2883 12.6505 33.3069 13.2209 33.3069 18.0373C33.3069 22.8536 33.2883 23.4235 33.2014 25.3258C33.1078 27.3786 32.6965 29.2831 31.2292 30.7486C29.7624 32.2141 27.8555 32.625 25.8015 32.7191C23.898 32.8059 23.3271 32.8245 18.5064 32.8245C13.6857 32.8245 13.1148 32.8059 11.2114 32.7191C9.15672 32.6256 7.25045 32.2147 5.78366 30.7486C4.31686 29.2831 3.9056 27.3786 3.81138 25.3258C3.7245 23.4229 3.70645 22.8525 3.70645 18.0367C3.70645 13.2209 3.72507 12.6505 3.81195 10.7482C3.9056 8.69538 4.31686 6.79082 5.78422 5.32534C7.25102 3.85985 9.15729 3.44895 11.2119 3.35483C13.1154 3.26802 13.6863 3.24999 18.5064 3.24999ZM18.5064 0C13.6034 0 12.989 0.0208549 11.063 0.108784C8.1294 0.242368 5.55236 0.960454 3.48305 3.02735C1.41543 5.09368 0.696138 7.66785 0.562434 10.5999C0.474426 12.5242 0.453552 13.138 0.453552 18.0367C0.453552 22.9354 0.474426 23.5492 0.562434 25.4735C0.696138 28.4044 1.41487 30.9792 3.48361 33.0466C5.55179 35.1129 8.12884 35.8316 11.0636 35.9652C12.989 36.0525 13.6034 36.0734 18.5064 36.0734C23.4095 36.0734 24.0238 36.0525 25.9498 35.9646C28.8829 35.831 31.4605 35.1129 33.5298 33.046C35.5979 30.9797 36.3172 28.405 36.4509 25.4729C36.5384 23.5492 36.5593 22.9354 36.5593 18.0367C36.5593 13.138 36.5384 12.5242 36.4504 10.5999C36.3167 7.66898 35.5979 5.09424 33.5292 3.02678C31.461 0.960454 28.884 0.241804 25.9493 0.10822C24.0238 0.0208549 23.4095 0 18.5064 0Z" fill="white" fill-opacity="0.5"/>
<path d="M18.5089 8.77588C13.3892 8.77588 9.23871 12.9226 9.23871 18.0377C9.23871 23.1528 13.3892 27.2996 18.5089 27.2996C23.6285 27.2996 27.779 23.1528 27.779 18.0377C27.779 12.9226 23.6285 8.77588 18.5089 8.77588ZM18.5089 24.0501C15.1854 24.0501 12.491 21.3582 12.491 18.0377C12.491 14.7173 15.1854 12.0253 18.5089 12.0253C21.8323 12.0253 24.5267 14.7173 24.5267 18.0377C24.5267 21.3582 21.8323 24.0501 18.5089 24.0501Z" fill="white" fill-opacity="0.5"/>
<path d="M28.1433 10.5735C29.3398 10.5735 30.3097 9.60442 30.3097 8.40904C30.3097 7.21367 29.3398 6.24463 28.1433 6.24463C26.9469 6.24463 25.977 7.21367 25.977 8.40904C25.977 9.60442 26.9469 10.5735 28.1433 10.5735Z" fill="white" fill-opacity="0.5"/>
</svg>
