<svg width="35" height="34" viewBox="0 0 35 34" fill="none" xmlns="http://www.w3.org/2000/svg">
<path d="M0.724797 11.2897H7.77299V34H0.724797V11.2897ZM4.25186 8.18474C6.5023 8.18474 8.33709 6.35269 8.33709 4.09237C8.33709 3.55495 8.23142 3.0228 8.02612 2.52629C7.82082 2.02978 7.5199 1.57864 7.14056 1.19863C6.76121 0.818616 6.31085 0.517173 5.81521 0.311512C5.31957 0.105851 4.78834 0 4.25186 0C3.71539 0 3.18416 0.105851 2.68852 0.311512C2.19288 0.517173 1.74252 0.818616 1.36318 1.19863C0.983827 1.57864 0.682912 2.02978 0.47761 2.52629C0.272309 3.0228 0.16664 3.55495 0.16664 4.09237C0.160703 6.35269 1.98955 8.18474 4.25186 8.18474ZM19.233 22.7638C19.233 19.8016 19.7971 16.9346 23.4607 16.9346C27.0709 16.9346 27.1244 20.3191 27.1244 22.9542V34H34.1666V21.5444C34.1666 15.4297 32.8484 10.7246 25.7171 10.7246C22.291 10.7246 19.993 12.6102 19.0489 14.3947H18.9539V11.2897H12.1907V34H19.233V22.7638Z" fill="white"/>
</svg>
