<svg width="130" height="48" viewBox="0 0 130 48" fill="none" xmlns="http://www.w3.org/2000/svg">
<path d="M25.4133 22.6697V14.0406C31.7593 13.3358 36.708 7.94301 36.708 1.41176V0H12.494V0.00417264C5.5849 0.116723 0 5.77225 0 12.708C0 19.2373 4.9488 24.6299 11.2948 25.3348V33.9639C4.9488 34.6688 0 40.0635 0 46.5927V48.0046H24.4582C29.3902 48.0046 33.8551 45.0246 35.6883 40.4473C39.1396 31.8181 33.3735 23.5539 25.4133 22.6697ZM25.4133 2.82564H33.7842C33.1628 7.14647 29.7364 10.5747 25.4133 11.1962V2.82564ZM11.2949 45.1808H2.92385C3.54531 40.858 6.97171 37.4297 11.2949 36.8104V45.1808V45.1808ZM11.2949 22.4904C6.97171 21.869 3.54531 18.4406 2.92385 14.1198H11.2949V22.4904V22.4904ZM22.5896 45.1808H14.1185V11.2962H2.92385C3.60994 6.51245 7.735 2.82564 12.7067 2.82564H22.5897V45.1808H22.5896ZM25.4133 45.0788V25.5141C30.1973 26.2022 33.8843 30.3271 33.8843 35.2965C33.8843 40.2678 30.1973 44.3926 25.4133 45.0788Z" fill="#23356D"/>
<path d="M33.8988 35.3404C33.8988 40.3118 30.2117 44.4367 25.4277 45.1227V25.5581C30.2117 26.2462 33.8988 30.3711 33.8988 35.3404Z" fill="#67CE4D"/>
<path d="M11.3092 36.8543V45.2248H2.93823C3.5597 40.902 6.98609 37.4737 11.3092 36.8543Z" fill="#67CE4D"/>
<path d="M11.3092 14.1639V22.5345C6.98609 21.913 3.5597 18.4848 2.93823 14.1639H11.3092Z" fill="#67CE4D"/>
<path d="M22.604 2.86957V45.2248H14.1329V11.3402H2.93823C3.62432 6.55645 7.74938 2.86957 12.7211 2.86957H22.604Z" fill="#0790FF"/>
<path d="M33.7987 2.86957C33.1772 7.19039 29.7508 10.6187 25.4277 11.2401V2.86957H33.7987Z" fill="#67CE4D"/>
<path d="M56.7376 8.15021C57.8291 9.06343 58.5122 10.2692 58.7875 11.7679H54.6622C54.5418 11.1825 54.2711 10.7213 53.8502 10.3855C53.4289 10.0495 52.9001 9.88148 52.2648 9.88148C51.7659 9.88148 51.3883 9.98936 51.1302 10.2044C50.8726 10.4202 50.7437 10.7258 50.7437 11.1219C50.7437 11.57 50.9796 11.9058 51.4524 12.1296C51.925 12.3537 52.6681 12.5777 53.6828 12.8014C54.7826 13.0599 55.6847 13.3227 56.3897 13.5896C57.0943 13.8568 57.7044 14.2917 58.2201 14.8943C58.7358 15.4977 58.9935 16.307 58.9935 17.3233C58.9935 18.1501 58.7703 18.8825 58.3234 19.5197C57.8761 20.1571 57.2315 20.6565 56.3897 21.0184C55.5476 21.38 54.5506 21.5609 53.3991 21.5609C51.4567 21.5609 49.9011 21.1305 48.7324 20.2689C47.5634 19.4078 46.8504 18.176 46.5928 16.5739H50.8465C50.9153 17.1939 51.1772 17.6682 51.6329 17.9951C52.0882 18.3225 52.6774 18.486 53.3991 18.486C53.8972 18.486 54.2757 18.3696 54.5333 18.1373C54.7914 17.9047 54.9202 17.599 54.9202 17.2199C54.9202 16.7204 54.6835 16.3631 54.2111 16.1476C53.7381 15.9323 52.9694 15.7044 51.9036 15.4627C50.8377 15.2392 49.9611 14.9978 49.2738 14.7394C48.5864 14.4809 47.9935 14.0635 47.495 13.4861C46.9965 12.9091 46.7472 12.1212 46.7472 11.1219C46.7472 9.82995 47.2374 8.78336 48.2167 7.98241C49.1966 7.18127 50.58 6.78085 52.3677 6.78085C54.1892 6.78085 55.6462 7.23737 56.7376 8.15021Z" fill="#23356D"/>
<path d="M75.7515 9.11504V21.3802H73.4654C72.2788 21.3802 71.3169 20.4161 71.3169 19.2269V18.7704C70.9043 19.6147 70.2897 20.2865 69.4739 20.7859C68.6574 21.2857 67.7077 21.5351 66.6247 21.5351C64.9748 21.5351 63.6639 20.984 62.6932 19.8815C61.7219 18.7792 61.2363 17.2633 61.2363 15.3338V6.96176H63.4708C64.6574 6.96176 65.6192 7.92582 65.6192 9.11504V14.7912C65.6192 15.7729 65.8728 16.5353 66.3801 17.0777C66.8865 17.6205 67.5701 17.8917 68.4295 17.8917C69.3229 17.8917 70.0278 17.6076 70.5436 17.039C71.0593 16.4707 71.317 15.6611 71.317 14.6101V6.96176H73.6032C74.7896 6.96176 75.7515 7.92589 75.7515 9.11504Z" fill="#23356D"/>
<path d="M90.9493 7.67229C91.8859 8.26656 92.6253 9.11923 93.1667 10.2304C93.7079 11.3415 93.9786 12.6553 93.9786 14.1708C93.9786 15.6697 93.7079 16.9789 93.1667 18.0985C92.6253 19.2184 91.8859 20.0753 90.9493 20.6696C90.0123 21.2638 88.9512 21.5609 87.7652 21.5609C86.665 21.5609 85.7196 21.3115 84.9294 20.8117C84.1384 20.3123 83.5627 19.6318 83.2018 18.7703V21.3801H80.9418C79.7552 21.3801 78.7932 20.416 78.7932 19.2268V2.25903H81.0533C82.2399 2.25903 83.2018 3.2231 83.2018 4.41232V9.57155C83.5627 8.71024 84.1384 8.03 84.9294 7.53016C85.7195 7.03075 86.6649 6.78092 87.7652 6.78092C88.9512 6.78092 90.0123 7.07809 90.9493 7.67229ZM84.0654 11.5999C83.4726 12.2289 83.1763 13.0857 83.1763 14.1708C83.1763 15.2393 83.4726 16.0919 84.0654 16.7291C84.6588 17.3664 85.4192 17.685 86.3474 17.685C87.2924 17.685 88.0532 17.3751 88.6289 16.7548C89.2046 16.1346 89.4929 15.2735 89.4929 14.1708C89.4929 13.0687 89.2046 12.2072 88.6289 11.5869C88.0532 10.9668 87.2924 10.6568 86.3474 10.6568C85.4192 10.6568 84.6588 10.9712 84.0654 11.5999Z" fill="#23356D"/>
<path d="M95.0356 7.24598V3.11166H100.261C101.447 3.11166 102.409 4.07572 102.409 5.26494V21.38H99.9168C98.7302 21.38 97.7683 20.4159 97.7683 19.2267V7.24598H95.0356Z" fill="#23356D"/>
<path d="M56.8254 31.2738C57.9263 32.1823 58.6153 33.382 58.893 34.873H54.732C54.6105 34.2905 54.3375 33.8317 53.913 33.4977C53.488 33.1633 52.9547 32.9962 52.3139 32.9962C51.8107 32.9962 51.4298 33.1035 51.1694 33.3175C50.9096 33.5322 50.7796 33.8362 50.7796 34.2303C50.7796 34.6761 51.0175 35.0102 51.4945 35.2328C51.9711 35.4558 52.7207 35.6787 53.7441 35.9012C54.8534 36.1584 55.7634 36.4199 56.4745 36.6854C57.1851 36.9513 57.8006 37.3839 58.3207 37.9835C58.8409 38.5837 59.1007 39.389 59.1007 40.4001C59.1007 41.2227 58.8756 41.9513 58.4249 42.5853C57.9737 43.2194 57.3235 43.7162 56.4745 44.0763C55.6251 44.4361 54.6194 44.616 53.458 44.616C51.4988 44.616 49.9297 44.1878 48.751 43.3306C47.5718 42.474 46.8526 41.2484 46.5928 39.6545H50.8833C50.9527 40.2714 51.2168 40.7432 51.6765 41.0685C52.1357 41.3942 52.73 41.5568 53.458 41.5568C53.9603 41.5568 54.3422 41.4411 54.602 41.2099C54.8623 40.9785 54.9923 40.6743 54.9923 40.2972C54.9923 39.8003 54.7535 39.4448 54.277 39.2304C53.7999 39.0161 53.0246 38.7894 51.9495 38.549C50.8744 38.3266 49.9903 38.0865 49.297 37.8293C48.6037 37.5722 48.0056 37.1569 47.5028 36.5824C47 36.0084 46.7485 35.2245 46.7485 34.2303C46.7485 32.9449 47.243 31.9037 48.2308 31.1068C49.2191 30.3097 50.6145 29.9114 52.4176 29.9114C54.2549 29.9114 55.7245 30.3656 56.8254 31.2738Z" fill="#23356D"/>
<path d="M69.5644 40.6503V44.4357H67.5798C65.8957 44.4357 64.5856 44.0197 63.6493 43.1868C62.7126 42.3543 62.2446 40.9766 62.2446 39.0537V33.7746H60.3115V30.0663H62.2446V26.5383H64.489C65.6836 26.5383 66.6519 27.5059 66.6519 28.6994V30.0663H69.5386V33.7746H66.6519V39.1309C66.6519 39.6974 66.7679 40.0925 66.9998 40.3155C67.2318 40.5388 67.6225 40.6503 68.1725 40.6503H69.5644V40.6503Z" fill="#23356D"/>
<path d="M86.343 32.2274V44.4358H84.0729C82.8783 44.4358 81.9099 43.4682 81.9099 42.2747V41.8349C81.4975 42.6763 80.883 43.3457 80.0671 43.8436C79.2508 44.3417 78.3016 44.5904 77.2191 44.5904C75.5695 44.5904 74.2591 44.0411 73.2885 42.9422C72.3175 41.8437 71.8323 40.3328 71.8323 38.4099V30.0663H74.0508C75.2454 30.0663 76.2138 31.0338 76.2138 32.2274V37.869C76.2138 38.8476 76.4672 39.6073 76.9741 40.1481C77.4807 40.6888 78.1638 40.9593 79.0232 40.9593C79.9164 40.9593 80.6211 40.676 81.1365 40.1095C81.6521 39.543 81.9098 38.7362 81.9098 37.6887V30.0663H84.18C85.3746 30.0663 86.343 31.0338 86.343 32.2274Z" fill="#23356D"/>
<path d="M97.6832 30.6328C98.4733 31.131 99.0492 31.8089 99.4101 32.6672V25.3795H101.654C102.849 25.3795 103.817 26.3471 103.817 27.5406V44.4357H101.573C100.378 44.4357 99.4101 43.4682 99.4101 42.2747V41.8349C99.0493 42.6935 98.4733 43.3715 97.6832 43.8693C96.8926 44.3674 95.9475 44.6161 94.8481 44.6161C93.6624 44.6161 92.6013 44.3199 91.665 43.7276C90.7282 43.1353 89.9896 42.2815 89.4483 41.1653C88.9071 40.0495 88.6365 38.7446 88.6365 37.2511C88.6365 35.7405 88.9071 34.4312 89.4483 33.3239C89.9896 32.2165 90.7282 31.3667 91.665 30.7744C92.6013 30.1822 93.6624 29.886 94.8481 29.886C95.9475 29.8861 96.8926 30.1351 97.6832 30.6328ZM93.9846 34.6758C93.4088 35.2939 93.1213 36.1525 93.1213 37.2511C93.1213 38.3499 93.4088 39.2081 93.9846 39.8262C94.5602 40.4441 95.3205 40.7533 96.2656 40.7533C97.1936 40.7533 97.9539 40.4358 98.5467 39.8004C99.1395 39.1655 99.4359 38.3157 99.4359 37.2511C99.4359 36.1694 99.1395 35.3157 98.5467 34.6887C97.9539 34.0622 97.1936 33.7488 96.2656 33.7488C95.3205 33.7488 94.5602 34.0578 93.9846 34.6758Z" fill="#23356D"/>
<path d="M107.168 24.3623C107.649 23.9246 108.285 23.7057 109.075 23.7057C109.865 23.7057 110.501 23.9246 110.983 24.3623C111.463 24.8001 111.704 25.3538 111.704 26.0233C111.704 26.676 111.463 27.2209 110.983 27.6586C110.501 28.0964 109.865 28.3153 109.075 28.3153C108.285 28.3153 107.649 28.0964 107.168 27.6586C106.687 27.2208 106.446 26.676 106.446 26.0233C106.446 25.3538 106.687 24.8001 107.168 24.3623ZM111.266 32.2275V44.4358H109.022C107.827 44.4358 106.859 43.4683 106.859 42.2747V30.0664H109.103C110.298 30.0663 111.266 31.0339 111.266 32.2275Z" fill="#23356D"/>
<path d="M124.861 30.7745C125.987 31.3667 126.872 32.221 127.516 33.3368C128.161 34.453 128.483 35.7575 128.483 37.251C128.483 38.7446 128.161 40.0495 127.516 41.1653C126.872 42.2815 125.987 43.1353 124.861 43.7276C123.736 44.3198 122.46 44.616 121.034 44.616C119.608 44.616 118.328 44.3199 117.194 43.7276C116.06 43.1353 115.171 42.2815 114.526 41.1653C113.882 40.0495 113.56 38.7446 113.56 37.251C113.56 35.7575 113.882 34.453 114.526 33.3368C115.171 32.221 116.06 31.3667 117.194 30.7745C118.328 30.1822 119.608 29.886 121.034 29.886C122.46 29.886 123.736 30.1822 124.861 30.7745ZM118.908 34.6115C118.332 35.2211 118.044 36.101 118.044 37.251C118.044 38.4013 118.332 39.2769 118.908 39.8777C119.483 40.4788 120.192 40.7789 121.034 40.7789C121.876 40.7789 122.58 40.4788 123.147 39.8777C123.714 39.2769 123.998 38.4013 123.998 37.251C123.998 36.101 123.714 35.221 123.147 34.6115C122.58 34.0023 121.876 33.6972 121.034 33.6972C120.192 33.6973 119.483 34.0023 118.908 34.6115Z" fill="#23356D"/>
</svg>
