<svg width="553" height="204" viewBox="0 0 553 204" fill="none" xmlns="http://www.w3.org/2000/svg">
<path d="M144.07 150.197C144.07 171.325 128.4 188.856 108.068 191.771V108.622C128.4 111.546 144.07 129.077 144.07 150.197Z" fill="#67CE4D"/>
<path d="M48.064 156.631V192.205H12.4874C15.1286 173.833 29.6908 159.263 48.064 156.631Z" fill="#67CE4D"/>
<path d="M48.064 60.1967V95.7715C29.6908 93.1304 15.1286 78.5602 12.4874 60.1967H48.064Z" fill="#67CE4D"/>
<path d="M96.0669 12.1957V192.206H60.0649V48.1959H12.4874C15.4033 27.8649 32.9348 12.1957 54.0646 12.1957H96.0669Z" fill="#0790FF"/>
<path d="M143.645 12.1957C141.003 30.5592 126.441 45.1293 108.068 47.7704V12.1957H143.645Z" fill="#67CE4D"/>
<path d="M241.134 34.6384C245.773 38.5195 248.676 43.6442 249.846 50.0135H232.314C231.802 47.5254 230.652 45.5655 228.863 44.1384C227.072 42.7102 224.825 41.9962 222.125 41.9962C220.005 41.9962 218.4 42.4547 217.303 43.3688C216.208 44.2858 215.66 45.5844 215.66 47.2681C215.66 49.1726 216.663 50.5998 218.672 51.5506C220.681 52.5032 223.839 53.4551 228.152 54.4059C232.826 55.5044 236.66 56.6215 239.656 57.7557C242.65 58.8914 245.243 60.7395 247.435 63.3008C249.627 65.865 250.722 69.3047 250.722 73.6239C250.722 77.1379 249.773 80.2505 247.874 82.9587C245.973 85.6674 243.234 87.7899 239.656 89.328C236.077 90.865 231.84 91.6336 226.946 91.6336C218.69 91.6336 212.079 89.8044 207.112 86.1427C202.144 82.4832 199.114 77.2478 198.019 70.4389H216.097C216.39 73.0742 217.503 75.0897 219.439 76.4793C221.374 77.8708 223.878 78.5653 226.946 78.5653C229.062 78.5653 230.671 78.0709 231.766 77.0833C232.863 76.095 233.411 74.7956 233.411 73.1843C233.411 71.0618 232.405 69.5432 230.397 68.6272C228.387 67.7121 225.12 66.7435 220.59 65.7165C216.06 64.7665 212.334 63.7407 209.413 62.6422C206.492 61.544 203.972 59.7698 201.853 57.3158C199.735 54.8636 198.675 51.5149 198.675 47.2681C198.675 41.7772 200.758 37.3292 204.921 33.9252C209.085 30.5203 214.965 28.8186 222.562 28.8186C230.304 28.8186 236.496 30.7588 241.134 34.6384Z" fill="white"/>
<path d="M321.944 38.7389V90.8657H312.228C307.185 90.8657 303.097 86.7684 303.097 81.7142V79.774C301.343 83.3622 298.731 86.2175 295.264 88.34C291.794 90.4644 287.758 91.5243 283.155 91.5243C276.143 91.5243 270.571 89.182 266.446 84.4964C262.318 79.8115 260.254 73.3688 260.254 65.1684V29.5874H269.751C274.794 29.5874 278.882 33.6847 278.882 38.7389V62.8623C278.882 67.0349 279.959 70.2748 282.115 72.5803C284.268 74.887 287.173 76.0397 290.825 76.0397C294.622 76.0397 297.618 74.8324 299.81 72.4159C302.002 70.0004 303.097 66.5596 303.097 62.093V29.5874H312.813C317.856 29.5874 321.944 33.685 321.944 38.7389Z" fill="white"/>
<path d="M386.535 32.6073C390.515 35.1329 393.658 38.7568 395.958 43.4791C398.259 48.2014 399.409 53.7852 399.409 60.2261C399.409 66.5964 398.259 72.1605 395.958 76.9185C393.658 81.6783 390.515 85.32 386.535 87.8457C382.552 90.3713 378.043 91.634 373.002 91.634C368.326 91.634 364.308 90.5741 360.95 88.4497C357.588 86.3272 355.141 83.4352 353.608 79.7738V90.8654H344.003C338.96 90.8654 334.871 86.7682 334.871 81.714V9.60092H344.477C349.52 9.60092 353.608 13.6982 353.608 18.7524V40.6791C355.141 37.0185 357.588 34.1275 360.95 32.0032C364.308 29.8807 368.326 28.819 373.002 28.819C378.043 28.819 382.552 30.0819 386.535 32.6073ZM357.278 49.2997C354.759 51.9727 353.5 55.6144 353.5 60.2261C353.5 64.7669 354.759 68.3908 357.278 71.0987C359.8 73.8074 363.032 75.1614 366.977 75.1614C370.993 75.1614 374.226 73.8441 376.673 71.2078C379.12 68.5723 380.345 64.9125 380.345 60.2261C380.345 55.542 379.12 51.8807 376.673 49.2443C374.226 46.6088 370.993 45.2916 366.977 45.2916C363.032 45.2916 359.8 46.6274 357.278 49.2997Z" fill="white"/>
<path d="M403.901 30.7953V13.2245H426.108C431.151 13.2245 435.239 17.3218 435.239 22.376V90.8649H424.646C419.603 90.8649 415.515 86.7677 415.515 81.7135V30.7953H403.901Z" fill="white"/>
<path d="M241.507 132.913C246.186 136.775 249.114 141.873 250.295 148.21H232.61C232.094 145.735 230.934 143.785 229.13 142.365C227.324 140.944 225.057 140.234 222.334 140.234C220.195 140.234 218.576 140.69 217.47 141.599C216.365 142.512 215.813 143.804 215.813 145.479C215.813 147.374 216.824 148.793 218.851 149.739C220.877 150.687 224.062 151.634 228.412 152.58C233.127 153.673 236.994 154.784 240.016 155.913C243.036 157.043 245.652 158.881 247.863 161.43C250.073 163.981 251.178 167.403 251.178 171.7C251.178 175.196 250.221 178.293 248.305 180.987C246.388 183.682 243.625 185.794 240.016 187.324C236.406 188.853 232.132 189.618 227.196 189.618C218.869 189.618 212.201 187.798 207.191 184.155C202.18 180.514 199.123 175.306 198.019 168.531H216.254C216.549 171.153 217.671 173.158 219.625 174.541C221.576 175.925 224.102 176.616 227.196 176.616C229.331 176.616 230.954 176.124 232.058 175.142C233.164 174.159 233.717 172.866 233.717 171.263C233.717 169.151 232.702 167.64 230.677 166.729C228.649 165.818 225.354 164.855 220.785 163.833C216.216 162.888 212.458 161.867 209.512 160.774C206.565 159.682 204.023 157.917 201.887 155.475C199.749 153.036 198.681 149.704 198.681 145.479C198.681 140.016 200.782 135.591 204.98 132.204C209.181 128.816 215.111 127.123 222.774 127.123C230.583 127.123 236.829 129.054 241.507 132.913Z" fill="white"/>
<path d="M295.649 172.764V188.852H287.215C280.057 188.852 274.489 187.084 270.51 183.544C266.529 180.006 264.54 174.151 264.54 165.978V143.542H256.324V127.782H264.54V112.788H274.079C279.156 112.788 283.271 116.9 283.271 121.972V127.782H295.54V143.542H283.271V166.306C283.271 168.714 283.764 170.393 284.75 171.341C285.736 172.29 287.396 172.764 289.734 172.764H295.649V172.764Z" fill="white"/>
<path d="M366.958 136.967V188.852H357.31C352.233 188.852 348.117 184.74 348.117 179.667V177.798C346.365 181.374 343.753 184.219 340.285 186.335C336.816 188.452 332.782 189.509 328.181 189.509C321.171 189.509 315.602 187.175 311.477 182.504C307.35 177.836 305.287 171.414 305.287 163.242V127.782H314.716C319.793 127.782 323.909 131.894 323.909 136.966V160.943C323.909 165.102 324.986 168.331 327.14 170.629C329.293 172.927 332.196 174.077 335.849 174.077C339.645 174.077 342.64 172.873 344.831 170.465C347.022 168.058 348.117 164.629 348.117 160.177V127.782H357.765C362.842 127.782 366.958 131.894 366.958 136.967Z" fill="white"/>
<path d="M415.154 130.189C418.512 132.307 420.959 135.188 422.493 138.836V107.863H432.032C437.109 107.863 441.224 111.975 441.224 117.048V188.852H431.686C426.609 188.852 422.493 184.74 422.493 179.667V177.798C420.96 181.447 418.512 184.329 415.154 186.444C411.794 188.561 407.777 189.618 403.104 189.618C398.065 189.618 393.556 188.359 389.576 185.842C385.595 183.325 382.456 179.696 380.156 174.952C377.856 170.21 376.705 164.665 376.705 158.317C376.705 151.897 377.856 146.333 380.156 141.626C382.456 136.92 385.595 133.308 389.576 130.791C393.556 128.274 398.065 127.015 403.104 127.015C407.777 127.016 411.794 128.074 415.154 130.189ZM399.435 147.372C396.987 149.999 395.766 153.648 395.766 158.317C395.766 162.987 396.988 166.635 399.435 169.261C401.881 171.888 405.112 173.201 409.129 173.201C413.073 173.201 416.304 171.852 418.824 169.152C421.343 166.453 422.603 162.842 422.603 158.317C422.603 153.72 421.343 150.091 418.824 147.427C416.304 144.764 413.073 143.432 409.129 143.432C405.112 143.432 401.881 144.746 399.435 147.372Z" fill="white"/>
<path d="M455.464 103.54C457.508 101.679 460.211 100.749 463.57 100.749C466.928 100.749 469.631 101.679 471.676 103.54C473.72 105.4 474.744 107.754 474.744 110.599C474.744 113.373 473.72 115.689 471.676 117.549C469.631 119.409 466.928 120.34 463.57 120.34C460.211 120.34 457.508 119.409 455.464 117.549C453.419 115.688 452.397 113.373 452.397 110.599C452.397 107.754 453.419 105.4 455.464 103.54ZM472.881 136.967V188.852H463.343C458.266 188.852 454.15 184.74 454.15 179.668V127.782H463.688C468.765 127.782 472.881 131.894 472.881 136.967Z" fill="white"/>
<path d="M530.662 130.791C535.444 133.309 539.206 136.939 541.944 141.681C544.683 146.425 546.052 151.969 546.052 158.317C546.052 164.665 544.683 170.21 541.944 174.953C539.206 179.696 535.443 183.325 530.662 185.842C525.878 188.359 520.456 189.618 514.395 189.618C508.333 189.618 502.894 188.359 498.074 185.842C493.254 183.325 489.475 179.696 486.736 174.953C483.998 170.21 482.629 164.664 482.629 158.317C482.629 151.969 483.998 146.425 486.736 141.681C489.475 136.939 493.254 133.309 498.074 130.791C502.894 128.274 508.333 127.015 514.395 127.015C520.456 127.015 525.878 128.274 530.662 130.791ZM505.358 147.099C502.911 149.69 501.689 153.429 501.689 158.317C501.689 163.206 502.911 166.927 505.358 169.48C507.804 172.035 510.816 173.31 514.395 173.31C517.972 173.31 520.967 172.035 523.377 169.48C525.787 166.927 526.992 163.205 526.992 158.317C526.992 153.429 525.787 149.689 523.377 147.099C520.967 144.51 517.972 143.213 514.395 143.213C510.816 143.214 507.804 144.51 505.358 147.099Z" fill="white"/>
</svg>
