<svg width="45" height="39" viewBox="0 0 45 39" fill="none" xmlns="http://www.w3.org/2000/svg">
<path d="M15.7966 1.32465C17.301 0.50648 19.7383 0.505463 21.2457 1.32465L34.1301 8.32586C35.6345 9.14403 36.8546 11.1925 36.8546 12.899V26.643C36.8546 28.3506 35.6375 30.396 34.1301 31.2152L21.2457 38.2164C19.7413 39.0345 17.304 39.0366 15.7966 38.2164L2.91221 31.2152C1.40785 30.397 0.187653 28.3485 0.187653 26.643V12.899C0.187653 11.1915 1.40479 9.14606 2.91221 8.32586L15.7966 1.32465Z" fill="#3658C4"/>
<path d="M36.3437 17.944C41.124 17.944 44.9991 14.0235 44.9991 9.18738C44.9991 4.35124 41.124 0.430771 36.3437 0.430771C31.5634 0.430771 27.6882 4.35124 27.6882 9.18738C27.6882 14.0235 31.5634 17.944 36.3437 17.944Z" fill="#74EEFF"/>
<path d="M23.8324 24.2906V15.1433C23.8324 14.3149 24.4598 13.6596 25.2522 13.6596C26.0447 13.6596 26.6711 14.3149 26.6711 15.1433V24.2917C26.6711 25.119 26.0447 25.7743 25.2522 25.7743C24.4598 25.7743 23.8324 25.119 23.8324 24.2906ZM21.6171 19.7816C21.6171 23.8673 19.4232 25.871 15.9592 25.871C12.4931 25.871 10.3746 23.848 10.3746 19.8772V15.1433C10.3746 14.3149 11.001 13.6596 11.7934 13.6596C12.5858 13.6596 13.2132 14.3149 13.2132 15.1433V19.8009C13.2132 21.9979 14.2623 23.1346 15.9959 23.1346C17.7274 23.1346 18.7785 22.0356 18.7785 19.8966V15.1443C18.7785 14.3149 19.4049 13.6596 20.1973 13.6596C20.9897 13.6596 21.6171 14.3149 21.6171 15.1433V19.7816Z" fill="white"/>
<path d="M36.3452 12.6419C34.8836 12.6419 33.7989 11.8502 33.7989 10.6433V10.623C33.7989 9.78241 34.1666 9.28785 34.8643 8.95203C34.355 8.62538 34.025 8.17966 34.025 7.43782V7.41747C34.025 6.36016 34.9498 5.51859 36.3452 5.51859C37.7406 5.51859 38.6654 6.34999 38.6654 7.41849V7.43884C38.6654 8.17966 38.3354 8.62538 37.8261 8.95203C38.4953 9.31838 38.8915 9.76308 38.8915 10.5843V10.6046C38.8915 11.8889 37.8068 12.6419 36.3452 12.6419ZM36.3452 8.4473C36.9207 8.4473 37.2884 8.09113 37.2884 7.60573V7.58537C37.2884 7.16103 36.939 6.77535 36.3452 6.77535C35.7514 6.77535 35.402 7.15187 35.402 7.57622V7.59657C35.402 8.08095 35.7697 8.4473 36.3452 8.4473ZM36.3452 11.3852C37.0623 11.3852 37.486 11.0086 37.486 10.5243V10.5049C37.486 9.97067 37.0052 9.65419 36.3452 9.65419C35.6852 9.65419 35.2045 9.97067 35.2045 10.5049V10.5253C35.2045 10.9995 35.6282 11.3852 36.3452 11.3852Z" fill="#172C6D"/>
</svg>
