<svg width="56" height="56" viewBox="0 0 56 56" fill="none" xmlns="http://www.w3.org/2000/svg">
<path d="M30.8001 46.6647C31.2954 46.6647 31.7705 46.8615 32.1207 47.2117C32.4709 47.562 32.6677 48.037 32.6677 48.5323C32.6677 49.0276 32.4709 49.5027 32.1207 49.8529C31.7705 50.2032 31.2954 50.3999 30.8001 50.3999C30.3048 50.3999 29.8298 50.2032 29.4795 49.8529C29.1293 49.5027 28.9325 49.0276 28.9325 48.5323C28.9325 48.037 29.1293 47.562 29.4795 47.2117C29.8298 46.8615 30.3048 46.6647 30.8001 46.6647ZM24.2677 44.7999C24.5189 44.7902 24.7694 44.8313 25.0043 44.9207C25.2392 45.0101 25.4536 45.146 25.6348 45.3202C25.8159 45.4945 25.96 45.7035 26.0584 45.9347C26.1569 46.166 26.2076 46.4148 26.2076 46.6661C26.2076 46.9175 26.1569 47.1662 26.0584 47.3975C25.96 47.6288 25.8159 47.8378 25.6348 48.012C25.4536 48.1863 25.2392 48.3222 25.0043 48.4116C24.7694 48.501 24.5189 48.5421 24.2677 48.5323C23.7853 48.5136 23.3288 48.3088 22.9941 47.9609C22.6594 47.613 22.4724 47.1489 22.4724 46.6661C22.4724 46.1833 22.6594 45.7193 22.9941 45.3713C23.3288 45.0234 23.7853 44.8186 24.2677 44.7999ZM37.3325 44.7999C37.5837 44.7902 37.8342 44.8313 38.0691 44.9207C38.304 45.0101 38.5185 45.146 38.6996 45.3202C38.8807 45.4945 39.0248 45.7035 39.1232 45.9347C39.2217 46.166 39.2724 46.4148 39.2724 46.6661C39.2724 46.9175 39.2217 47.1662 39.1232 47.3975C39.0248 47.6288 38.8807 47.8378 38.6996 48.012C38.5185 48.1863 38.304 48.3222 38.0691 48.4116C37.8342 48.501 37.5837 48.5421 37.3325 48.5323C36.8501 48.5136 36.3936 48.3088 36.0589 47.9609C35.7242 47.613 35.5372 47.1489 35.5372 46.6661C35.5372 46.1833 35.7242 45.7193 36.0589 45.3713C36.3936 45.0234 36.8501 44.8186 37.3325 44.7999ZM30.8001 16.7999C37.7021 16.7999 41.6165 21.2043 42.1849 26.5271H42.3585C46.7993 26.5271 50.4001 29.9907 50.4001 34.2635C50.4001 38.5363 46.7993 41.9999 42.3585 41.9999H19.2417C14.8009 41.9999 11.2001 38.5363 11.2001 34.2635C11.2001 29.9907 14.8009 26.5271 19.2417 26.5271H19.4153C19.9893 21.1679 23.8981 16.7999 30.8001 16.7999ZM10.6485 24.3599C10.7564 24.67 10.7518 25.0082 10.6356 25.3153C10.5195 25.6224 10.299 25.8789 10.0129 26.0399L9.7805 26.1407L7.5377 26.9135C7.20672 27.0293 6.84433 27.0167 6.52219 26.8782C6.20006 26.7397 5.94164 26.4853 5.79805 26.1654C5.65446 25.8455 5.63615 25.4833 5.74675 25.1505C5.85734 24.8178 6.08878 24.5386 6.3953 24.3683L6.6249 24.2675L8.8705 23.4947C9.22139 23.3743 9.60573 23.3981 9.9391 23.5608C10.2725 23.7236 10.5276 24.012 10.6485 24.3627V24.3599ZM24.9761 12.5999C25.9057 13.0535 26.7261 13.6443 27.4205 14.3359C22.4869 15.3551 18.9365 18.6283 17.5001 23.1727L17.3181 23.7999L17.1893 24.3235L16.7273 24.4075C15.4852 24.6633 14.2995 25.1414 13.2273 25.8187C12.145 24.1329 11.6437 22.1394 11.7997 20.1422C11.9556 18.1449 12.7604 16.2534 14.0912 14.7561C15.4221 13.2587 17.2061 12.2375 19.1712 11.8483C21.1364 11.459 23.1749 11.723 24.9761 12.5999ZM8.1677 13.0759L8.4001 13.1655L10.5337 14.2043C10.8482 14.3572 11.0942 14.6223 11.2231 14.9474C11.352 15.2725 11.3545 15.6341 11.2302 15.961C11.1059 16.2879 10.8638 16.5564 10.5514 16.7138C10.2391 16.8711 9.87917 16.9058 9.5425 16.8111L9.3073 16.7215L7.1737 15.6827C6.85917 15.5298 6.61325 15.2647 6.48435 14.9396C6.35544 14.6145 6.35289 14.2529 6.47719 13.926C6.60149 13.5991 6.84363 13.3306 7.15598 13.1733C7.46832 13.0159 7.82824 12.9812 8.1649 13.0759H8.1677ZM27.9721 6.42592C28.2669 6.56976 28.5018 6.81254 28.6359 7.1119C28.77 7.41127 28.7947 7.7482 28.7057 8.06392L28.6161 8.29912L27.5773 10.4327C27.4244 10.7473 27.1593 10.9932 26.8342 11.1221C26.5091 11.251 26.1475 11.2535 25.8206 11.1292C25.4937 11.0049 25.2252 10.7628 25.0679 10.4504C24.9105 10.1381 24.8758 9.77818 24.9705 9.44152L25.0601 9.20352L26.1017 7.06992C26.2646 6.73672 26.553 6.48177 26.9037 6.36103C27.2544 6.24029 27.6386 6.26363 27.9721 6.42592ZM17.3601 6.33632L17.4637 6.56592L18.2365 8.81152C18.3501 9.14208 18.3359 9.50317 18.1968 9.82381C18.0577 10.1445 17.8036 10.4015 17.4846 10.5443C17.1656 10.6871 16.8047 10.7055 16.4729 10.5957C16.141 10.4859 15.8622 10.256 15.6913 9.95112L15.5905 9.72152L14.8177 7.47872C14.7059 7.14894 14.721 6.78933 14.86 6.47008C14.9991 6.15084 15.2521 5.89487 15.5697 5.75215C15.8874 5.60942 16.2468 5.59019 16.5778 5.69821C16.9089 5.80622 17.1878 6.03373 17.3601 6.33632Z" fill="white"/>
<path d="M10.6356 25.3155C10.7518 25.0084 10.7564 24.6703 10.6485 24.3602V24.363C10.5276 24.0122 10.2725 23.7238 9.9391 23.5611C9.60573 23.3983 9.22139 23.3746 8.8705 23.495L6.6249 24.2678L6.3953 24.3686C6.08878 24.5389 5.85734 24.818 5.74675 25.1508C5.63615 25.4836 5.65446 25.8457 5.79805 26.1656C5.94164 26.4855 6.20006 26.7399 6.52219 26.8784C6.84433 27.017 7.20672 27.0296 7.5377 26.9138L9.7805 26.141L10.0129 26.0402C10.299 25.8791 10.5195 25.6226 10.6356 25.3155Z" fill="#EDFF1B"/>
<path d="M27.4205 14.3362C26.7261 13.6446 25.9057 13.0538 24.9761 12.6002C23.1749 11.7232 21.1364 11.4592 19.1712 11.8485C17.2061 12.2378 15.4221 13.2589 14.0912 14.7563C12.7604 16.2537 11.9556 18.1451 11.7997 20.1424C11.6437 22.1397 12.145 24.1331 13.2273 25.819C14.2995 25.1416 15.4852 24.6635 16.7273 24.4078L17.1893 24.3238L17.3181 23.8002L17.5001 23.173C18.9365 18.6286 22.4869 15.3554 27.4205 14.3362Z" fill="#EDFF1B"/>
<path d="M8.4001 13.1658L8.1677 13.0762H8.1649C7.82824 12.9815 7.46832 13.0162 7.15598 13.1735C6.84363 13.3308 6.60149 13.5994 6.47719 13.9263C6.35289 14.2532 6.35544 14.6148 6.48435 14.9399C6.61325 15.265 6.85917 15.5301 7.1737 15.683L9.3073 16.7218L9.5425 16.8114C9.87917 16.9061 10.2391 16.8713 10.5514 16.714C10.8638 16.5567 11.1059 16.2881 11.2302 15.9612C11.3545 15.6344 11.352 15.2728 11.2231 14.9477C11.0942 14.6226 10.8482 14.3575 10.5337 14.2046L8.4001 13.1658Z" fill="#EDFF1B"/>
<path d="M28.6359 7.11215C28.5018 6.81278 28.2669 6.57 27.9721 6.42616C27.6386 6.26387 27.2544 6.24053 26.9037 6.36127C26.553 6.48201 26.2646 6.73697 26.1017 7.07016L25.0601 9.20376L24.9705 9.44176C24.8758 9.77843 24.9105 10.1383 25.0679 10.4507C25.2252 10.763 25.4937 11.0052 25.8206 11.1295C26.1475 11.2538 26.5091 11.2512 26.8342 11.1223C27.1593 10.9934 27.4244 10.7475 27.5773 10.433L28.6161 8.29936L28.7057 8.06416C28.7947 7.74845 28.77 7.41151 28.6359 7.11215Z" fill="#EDFF1B"/>
<path d="M17.4637 6.56616L17.3601 6.33656C17.1878 6.03398 16.9089 5.80647 16.5778 5.69845C16.2468 5.59044 15.8874 5.60967 15.5697 5.75239C15.2521 5.89511 14.9991 6.15108 14.86 6.47033C14.721 6.78958 14.7059 7.14919 14.8177 7.47896L15.5905 9.72176L15.6913 9.95136C15.8622 10.2563 16.141 10.4862 16.4729 10.596C16.8047 10.7057 17.1656 10.6874 17.4846 10.5445C17.8036 10.4017 18.0577 10.1447 18.1968 9.82406C18.3359 9.50341 18.3501 9.14232 18.2365 8.81176L17.4637 6.56616Z" fill="#EDFF1B"/>
</svg>
