<svg width="56" height="56" viewBox="0 0 56 56" fill="none" xmlns="http://www.w3.org/2000/svg">
<path d="M27.9988 7C35.392 7 39.5862 11.8942 40.1963 17.8033H40.383C45.1407 17.8033 48.9977 21.651 48.9977 26.3958C48.9977 31.1418 45.1407 34.9883 40.383 34.9883L38.3728 34.9895L38.3682 35H37.6845L35.385 38.9433C35.2885 39.1088 35.1603 39.2536 35.0078 39.3696C34.8553 39.4855 34.6815 39.5703 34.4962 39.619C34.311 39.6678 34.1179 39.6795 33.9281 39.6537C33.7383 39.6278 33.5555 39.5649 33.39 39.4683C33.2245 39.3718 33.0797 39.2436 32.9638 39.0911C32.8478 38.9387 32.7631 38.7648 32.7143 38.5796C32.6656 38.3943 32.6538 38.2013 32.6796 38.0115C32.7055 37.8217 32.7685 37.6388 32.865 37.4733L34.3152 34.9883L29.3463 34.9895L29.3428 35H28.3512L26.0517 38.9433C25.9551 39.1088 25.827 39.2536 25.6745 39.3696C25.522 39.4855 25.3482 39.5703 25.1629 39.619C24.9776 39.6678 24.7846 39.6795 24.5948 39.6537C24.405 39.6278 24.2221 39.5649 24.0567 39.4683C23.8912 39.3718 23.7464 39.2436 23.6304 39.0911C23.5145 38.9387 23.4297 38.7648 23.381 38.5796C23.3322 38.3943 23.3205 38.2013 23.3463 38.0115C23.3722 37.8217 23.4351 37.6388 23.5317 37.4733L24.9818 34.9883L20.321 34.9895L20.3175 35H19.019L16.7183 38.9433C16.6218 39.1088 16.4936 39.2536 16.3412 39.3696C16.1887 39.4855 16.0148 39.5703 15.8296 39.619C15.6443 39.6678 15.4513 39.6795 15.2615 39.6537C15.0717 39.6278 14.8888 39.5649 14.7233 39.4683C14.5579 39.3718 14.413 39.2436 14.2971 39.0911C14.1812 38.9387 14.0964 38.7648 14.0477 38.5796C13.9989 38.3943 13.9871 38.2013 14.013 38.0115C14.0388 37.8217 14.1018 37.6388 14.1983 37.4733L15.6485 34.9883H15.6147C10.857 34.9883 7 31.1418 7 26.3958C7 21.651 10.857 17.8033 15.6147 17.8033H15.8013C16.415 11.8545 20.6057 7 28 7H27.9988ZM20.5672 40.4483C20.7327 40.5448 20.8775 40.673 20.9935 40.8255C21.1095 40.978 21.1942 41.1518 21.243 41.3371C21.2917 41.5223 21.3035 41.7154 21.2776 41.9052C21.2518 42.095 21.1887 42.2779 21.0922 42.4433L19.0505 45.9433C18.9554 46.1114 18.8278 46.259 18.6752 46.3774C18.5226 46.4958 18.348 46.5827 18.1615 46.6331C17.9751 46.6834 17.7804 46.6963 17.589 46.6708C17.3975 46.6453 17.213 46.5821 17.0462 46.4847C16.8794 46.3874 16.7335 46.2578 16.6172 46.1037C16.5008 45.9495 16.4163 45.7737 16.3684 45.5866C16.3205 45.3995 16.3103 45.2047 16.3383 45.0136C16.3664 44.8225 16.4321 44.6388 16.5317 44.4733L18.5733 40.9733C18.6698 40.8078 18.798 40.663 18.9505 40.547C19.103 40.431 19.2768 40.3463 19.4621 40.2975C19.6473 40.2487 19.8404 40.237 20.0302 40.2629C20.22 40.2887 20.4029 40.3518 20.5683 40.4483H20.5672ZM30.4255 42.4433C30.5251 42.2778 30.5908 42.0942 30.6188 41.9031C30.6468 41.712 30.6366 41.5172 30.5888 41.3301C30.5409 41.1429 30.4563 40.9672 30.34 40.813C30.2236 40.6588 30.0778 40.5293 29.911 40.4319C29.7442 40.3346 29.5597 40.2713 29.3682 40.2459C29.1767 40.2204 28.9821 40.2332 28.7956 40.2836C28.6092 40.334 28.4346 40.4209 28.282 40.5393C28.1294 40.6577 28.0018 40.8052 27.9067 40.9733L25.865 44.4733C25.7685 44.6388 25.7055 44.8217 25.6796 45.0115C25.6538 45.2013 25.6656 45.3943 25.7143 45.5796C25.7631 45.7648 25.8478 45.9387 25.9638 46.0911C26.0797 46.2436 26.2245 46.3718 26.39 46.4683C26.5555 46.5649 26.7383 46.6278 26.9281 46.6537C27.1179 46.6795 27.311 46.6678 27.4962 46.619C27.6815 46.5703 27.8553 46.4855 28.0078 46.3696C28.1603 46.2536 28.2885 46.1088 28.385 45.9433L30.4267 42.4433H30.4255Z" fill="white"/>
<path d="M20.9938 40.8257C20.8779 40.6732 20.733 40.5451 20.5675 40.4486H20.5687C20.4032 40.352 20.2204 40.289 20.0305 40.2631C19.8407 40.2372 19.6477 40.249 19.4624 40.2978C19.2771 40.3465 19.1033 40.4313 18.9508 40.5473C18.7983 40.6632 18.6701 40.8081 18.5737 40.9736L16.532 44.4736C16.4324 44.6391 16.3667 44.8227 16.3387 45.0138C16.3106 45.2049 16.3209 45.3997 16.3687 45.5868C16.4166 45.774 16.5012 45.9497 16.6175 46.1039C16.7339 46.2581 16.8797 46.3876 17.0465 46.485C17.2133 46.5823 17.3978 46.6456 17.5893 46.671C17.7808 46.6965 17.9754 46.6837 18.1619 46.6333C18.3483 46.583 18.5229 46.496 18.6755 46.3776C18.8281 46.2592 18.9557 46.1117 19.0508 45.9436L21.0925 42.4436C21.1891 42.2781 21.2521 42.0953 21.278 41.9055C21.3039 41.7156 21.2921 41.5226 21.2433 41.3373C21.1946 41.152 21.1098 40.9782 20.9938 40.8257Z" fill="#EDFF1B"/>
<path d="M30.6191 41.9033C30.5911 42.0944 30.5254 42.2781 30.4258 42.4436H30.427L28.3853 45.9436C28.2888 46.1091 28.1606 46.2539 28.0081 46.3698C27.8556 46.4858 27.6818 46.5705 27.4966 46.6193C27.3113 46.668 27.1183 46.6798 26.9285 46.6539C26.7386 46.6281 26.5558 46.5651 26.3903 46.4686C26.2249 46.3721 26.08 46.2439 25.9641 46.0914C25.8482 45.9389 25.7634 45.7651 25.7147 45.5798C25.6659 45.3946 25.6541 45.2015 25.68 45.0117C25.7058 44.8219 25.7688 44.6391 25.8653 44.4736L27.907 40.9736C28.0021 40.8055 28.1297 40.6579 28.2823 40.5395C28.4349 40.4211 28.6095 40.3342 28.796 40.2839C28.9824 40.2335 29.1771 40.2207 29.3685 40.2461C29.56 40.2716 29.7445 40.3348 29.9113 40.4322C30.0781 40.5296 30.224 40.6591 30.3403 40.8133C30.4567 40.9674 30.5412 41.1432 30.5891 41.3303C30.637 41.5175 30.6472 41.7122 30.6191 41.9033Z" fill="#EDFF1B"/>
</svg>
