<svg width="24" height="24" viewBox="0 0 24 24" fill="none" xmlns="http://www.w3.org/2000/svg">
<path d="M13.1999 19.9988C13.4122 19.9988 13.6158 20.0831 13.7659 20.2332C13.916 20.3833 14.0003 20.5869 14.0003 20.7992C14.0003 21.0115 13.916 21.215 13.7659 21.3652C13.6158 21.5153 13.4122 21.5996 13.1999 21.5996C12.9876 21.5996 12.784 21.5153 12.6339 21.3652C12.4838 21.215 12.3995 21.0115 12.3995 20.7992C12.3995 20.5869 12.4838 20.3833 12.6339 20.2332C12.784 20.0831 12.9876 19.9988 13.1999 19.9988ZM10.4003 19.1996C10.5079 19.1954 10.6153 19.213 10.716 19.2513C10.8167 19.2896 10.9086 19.3479 10.9862 19.4226C11.0638 19.4972 11.1256 19.5868 11.1678 19.6859C11.2099 19.7851 11.2317 19.8917 11.2317 19.9994C11.2317 20.1071 11.2099 20.2137 11.1678 20.3128C11.1256 20.4119 11.0638 20.5015 10.9862 20.5762C10.9086 20.6509 10.8167 20.7091 10.716 20.7474C10.6153 20.7858 10.5079 20.8034 10.4003 20.7992C10.1935 20.7912 9.99792 20.7034 9.85447 20.5543C9.71102 20.4052 9.63089 20.2063 9.63089 19.9994C9.63089 19.7925 9.71102 19.5936 9.85447 19.4445C9.99792 19.2954 10.1935 19.2076 10.4003 19.1996ZM15.9995 19.1996C16.1071 19.1954 16.2145 19.213 16.3152 19.2513C16.4159 19.2896 16.5078 19.3479 16.5854 19.4226C16.663 19.4972 16.7248 19.5868 16.767 19.6859C16.8091 19.7851 16.8309 19.8917 16.8309 19.9994C16.8309 20.1071 16.8091 20.2137 16.767 20.3128C16.7248 20.4119 16.663 20.5015 16.5854 20.5762C16.5078 20.6509 16.4159 20.7091 16.3152 20.7474C16.2145 20.7858 16.1071 20.8034 15.9995 20.7992C15.7927 20.7912 15.5971 20.7034 15.4537 20.5543C15.3102 20.4052 15.2301 20.2063 15.2301 19.9994C15.2301 19.7925 15.3102 19.5936 15.4537 19.4445C15.5971 19.2954 15.7927 19.2076 15.9995 19.1996ZM13.1999 7.19958C16.1579 7.19958 17.8355 9.08718 18.0791 11.3684H18.1535C20.0567 11.3684 21.5999 12.8528 21.5999 14.684C21.5999 16.5152 20.0567 17.9996 18.1535 17.9996H8.24631C6.34311 17.9996 4.7999 16.5152 4.7999 14.684C4.7999 12.8528 6.34311 11.3684 8.24631 11.3684H8.32071C8.56671 9.07158 10.2419 7.19958 13.1999 7.19958ZM4.5635 10.4396C4.60974 10.5725 4.60779 10.7174 4.55799 10.849C4.5082 10.9806 4.41373 11.0906 4.2911 11.1596L4.1915 11.2028L3.2303 11.534C3.08846 11.5836 2.93314 11.5782 2.79509 11.5188C2.65703 11.4595 2.54628 11.3505 2.48474 11.2133C2.4232 11.0762 2.41535 10.921 2.46275 10.7784C2.51015 10.6358 2.60934 10.5162 2.7407 10.4432L2.8391 10.4L3.8015 10.0688C3.95189 10.0172 4.1166 10.0274 4.25947 10.0971C4.40235 10.1669 4.5117 10.2905 4.5635 10.4408V10.4396ZM10.7039 5.39958C11.1023 5.59398 11.4539 5.84718 11.7515 6.14358C9.63711 6.58038 8.11551 7.98318 7.49991 9.93078L7.42191 10.1996L7.3667 10.424L7.1687 10.46C6.63636 10.5696 6.1282 10.7745 5.6687 11.0648C5.20488 10.3423 4.99001 9.48793 5.05685 8.63197C5.1237 7.776 5.4686 6.96537 6.03897 6.32364C6.60934 5.6819 7.3739 5.24427 8.2161 5.07744C9.05831 4.91061 9.93197 5.02374 10.7039 5.39958ZM3.5003 5.60358L3.5999 5.64198L4.5143 6.08718C4.64911 6.15271 4.7545 6.26632 4.80974 6.40565C4.86499 6.54499 4.86608 6.69995 4.81281 6.84005C4.75954 6.98015 4.65576 7.09523 4.5219 7.16266C4.38804 7.23009 4.23379 7.24497 4.0895 7.20438L3.9887 7.16598L3.0743 6.72078C2.9395 6.65525 2.83411 6.54164 2.77887 6.40231C2.72362 6.26298 2.72253 6.10802 2.7758 5.96792C2.82907 5.82782 2.93285 5.71273 3.06671 5.6453C3.20057 5.57788 3.35482 5.56299 3.4991 5.60358H3.5003ZM11.9879 2.75358C12.1142 2.81523 12.2149 2.91928 12.2724 3.04757C12.3299 3.17587 12.3404 3.32028 12.3023 3.45558L12.2639 3.55638L11.8187 4.47078C11.7532 4.60558 11.6396 4.71098 11.5002 4.76622C11.3609 4.82146 11.2059 4.82256 11.0658 4.76929C10.9257 4.71602 10.8107 4.61224 10.7432 4.47838C10.6758 4.34452 10.6609 4.19027 10.7015 4.04598L10.7399 3.94398L11.1863 3.02958C11.2561 2.88678 11.3797 2.77752 11.53 2.72577C11.6803 2.67402 11.845 2.68403 11.9879 2.75358ZM7.43991 2.71518L7.48431 2.81358L7.81551 3.77598C7.86419 3.91765 7.85812 4.0724 7.79849 4.20982C7.73887 4.34724 7.62999 4.45739 7.49327 4.5186C7.35655 4.57982 7.20188 4.58768 7.05966 4.54063C6.91743 4.49359 6.79796 4.39505 6.72471 4.26438L6.68151 4.16598L6.3503 3.20478C6.30238 3.06345 6.30885 2.90933 6.36844 2.77251C6.42804 2.63569 6.53648 2.52599 6.67261 2.46482C6.80874 2.40365 6.96277 2.39541 7.10464 2.44171C7.24652 2.488 7.36605 2.5855 7.43991 2.71518Z" fill="white"/>
<path d="M4.55799 10.849C4.60779 10.7174 4.60974 10.5725 4.5635 10.4396V10.4408C4.5117 10.2905 4.40235 10.1669 4.25947 10.0971C4.1166 10.0274 3.95189 10.0172 3.8015 10.0688L2.8391 10.4L2.7407 10.4432C2.60934 10.5162 2.51015 10.6358 2.46275 10.7784C2.41535 10.921 2.4232 11.0762 2.48474 11.2133C2.54628 11.3505 2.65703 11.4595 2.79509 11.5188C2.93314 11.5782 3.08846 11.5836 3.2303 11.534L4.1915 11.2028L4.2911 11.1596C4.41373 11.0906 4.5082 10.9806 4.55799 10.849Z" fill="#EDFF1B"/>
<path d="M11.7515 6.14358C11.4539 5.84718 11.1023 5.59398 10.7039 5.39958C9.93197 5.02374 9.05831 4.91061 8.2161 5.07744C7.3739 5.24427 6.60934 5.6819 6.03897 6.32364C5.4686 6.96537 5.1237 7.776 5.05685 8.63197C4.99001 9.48793 5.20488 10.3423 5.6687 11.0648C6.1282 10.7745 6.63636 10.5696 7.1687 10.46L7.3667 10.424L7.42191 10.1996L7.49991 9.93078C8.11551 7.98318 9.63711 6.58038 11.7515 6.14358Z" fill="#EDFF1B"/>
<path d="M3.5999 5.64198L3.5003 5.60358H3.4991C3.35482 5.56299 3.20057 5.57788 3.06671 5.6453C2.93285 5.71273 2.82907 5.82782 2.7758 5.96792C2.72253 6.10801 2.72362 6.26298 2.77887 6.40231C2.83411 6.54164 2.9395 6.65525 3.0743 6.72078L3.9887 7.16598L4.0895 7.20438C4.23379 7.24497 4.38804 7.23009 4.5219 7.16266C4.65576 7.09523 4.75954 6.98015 4.81281 6.84005C4.86608 6.69995 4.86499 6.54498 4.80974 6.40565C4.7545 6.26632 4.64911 6.15271 4.5143 6.08718L3.5999 5.64198Z" fill="#EDFF1B"/>
<path d="M12.2724 3.04757C12.2149 2.91928 12.1142 2.81523 11.9879 2.75358C11.845 2.68403 11.6803 2.67402 11.53 2.72577C11.3797 2.77752 11.2561 2.88678 11.1863 3.02958L10.7399 3.94398L10.7015 4.04598C10.6609 4.19027 10.6758 4.34452 10.7432 4.47838C10.8107 4.61224 10.9257 4.71602 11.0658 4.76929C11.2059 4.82256 11.3609 4.82146 11.5002 4.76622C11.6396 4.71098 11.7532 4.60558 11.8187 4.47078L12.2639 3.55638L12.3023 3.45558C12.3404 3.32028 12.3299 3.17587 12.2724 3.04757Z" fill="#EDFF1B"/>
<path d="M7.48431 2.81358L7.43991 2.71518C7.36605 2.5855 7.24652 2.488 7.10464 2.44171C6.96277 2.39541 6.80874 2.40365 6.67261 2.46482C6.53648 2.52599 6.42804 2.63569 6.36844 2.77251C6.30885 2.90933 6.30238 3.06345 6.3503 3.20478L6.68151 4.16598L6.72471 4.26438C6.79796 4.39505 6.91743 4.49359 7.05966 4.54063C7.20188 4.58768 7.35655 4.57982 7.49327 4.5186C7.62999 4.45739 7.73887 4.34724 7.79849 4.20982C7.85812 4.0724 7.86419 3.91765 7.81551 3.77598L7.48431 2.81358Z" fill="#EDFF1B"/>
</svg>
