<svg width="24" height="24" viewBox="0 0 24 24" fill="none" xmlns="http://www.w3.org/2000/svg">
<g clip-path="url(#clip0_2_713)">
<path d="M18.2464 8.19262C18.9776 8.19262 19.5704 7.59984 19.5704 6.86862C19.5704 6.13739 18.9776 5.54462 18.2464 5.54462C17.5151 5.54462 16.9224 6.13739 16.9224 6.86862C16.9224 7.59984 17.5151 8.19262 18.2464 8.19262Z" fill="white"/>
<path fill-rule="evenodd" clip-rule="evenodd" d="M7.0166 12.5333C7.0166 15.5757 9.49083 18.0499 12.5333 18.0499C15.5757 18.0499 18.0499 15.5757 18.0499 12.5333C18.0499 9.49083 15.5757 7.0166 12.5333 7.0166C9.49083 7.0166 7.0166 9.49083 7.0166 12.5333ZM9.77489 12.5332C9.77489 11.012 11.012 9.77489 12.5332 9.77489C14.0544 9.77489 15.2916 11.012 15.2916 12.5332C15.2916 14.0544 14.0544 15.2916 12.5332 15.2916C11.012 15.2916 9.77489 14.0544 9.77489 12.5332Z" fill="white"/>
<path fill-rule="evenodd" clip-rule="evenodd" d="M7.01667 23.5667H18.05C20.8856 23.5667 23.5667 20.8856 23.5667 18.05V7.01667C23.5667 4.1811 20.8856 1.5 18.05 1.5H7.01667C4.1811 1.5 1.5 4.1811 1.5 7.01667V18.05C1.5 20.8856 4.1811 23.5667 7.01667 23.5667ZM4.2583 7.01642C4.2583 5.7269 5.72711 4.25808 7.01663 4.25808H18.05C19.3395 4.25808 20.8083 5.7269 20.8083 7.01642V18.0498C20.8083 19.3393 19.3395 20.8081 18.05 20.8081H7.01663C5.70228 20.8081 4.2583 19.3641 4.2583 18.0498V7.01642Z" fill="white"/>
</g>
<defs>
<clipPath id="clip0_2_713">
<rect width="23.9985" height="24" fill="white" transform="translate(-0.00146484)"/>
</clipPath>
</defs>
</svg>
