<svg width="24" height="24" viewBox="0 0 24 24" fill="none" xmlns="http://www.w3.org/2000/svg">
<path d="M19.7969 13.4017C17.7589 12.4217 14.4799 11.7977 11.4969 11.7977C9.66895 11.7977 8.54595 8.6347 8.23295 6.5627L9.41495 4.5557C9.67996 4.10573 10.0578 3.73273 10.5112 3.47358C10.9646 3.21444 11.4777 3.07812 11.9999 3.07812C12.5222 3.07812 13.0353 3.21444 13.4887 3.47358C13.9421 3.73273 14.3199 4.10573 14.5849 4.5557L19.7969 13.4017ZM21.4699 16.2407L21.6099 16.4767C21.8785 16.9324 22.0218 17.4511 22.0252 17.9801C22.0287 18.509 21.8922 19.0295 21.6297 19.4887C21.3671 19.948 20.9878 20.3296 20.5302 20.5949C20.0726 20.8603 19.5529 20.9999 19.0239 20.9997H4.97495C4.44605 20.9998 3.92654 20.86 3.46907 20.5946C3.0116 20.3291 2.63243 19.9475 2.36999 19.4883C2.10755 19.0291 1.97117 18.5087 1.97468 17.9798C1.97818 17.4509 2.12145 16.9324 2.38995 16.4767L6.90695 8.8127C7.32395 11.5727 9.05095 13.7977 11.4969 13.7977C14.2439 13.7977 18.2069 14.3337 21.4699 16.2407Z" fill="white"/>
</svg>
