<svg width="24" height="24" viewBox="0 0 24 24" fill="none" xmlns="http://www.w3.org/2000/svg">
<g clip-path="url(#clip0_2_726)">
<path d="M21.998 5.80082C21.2464 6.12691 20.4515 6.34248 19.638 6.44082C20.4962 5.92814 21.1393 5.1216 21.448 4.17082C20.6416 4.65088 19.7588 4.98912 18.838 5.17082C18.2226 4.50339 17.403 4.05912 16.5079 3.90767C15.6127 3.75623 14.6926 3.90618 13.8918 4.33401C13.0911 4.76184 12.455 5.44335 12.0833 6.27166C11.7116 7.09996 11.6253 8.02821 11.838 8.91082C10.2075 8.82835 8.61249 8.40377 7.1567 7.66468C5.70092 6.92559 4.41689 5.88851 3.38805 4.62082C3.02718 5.25099 2.83757 5.96464 2.83805 6.69082C2.83677 7.3652 3.00226 8.02944 3.3198 8.62438C3.63734 9.21933 4.09707 9.72653 4.65805 10.1008C4.00602 10.0831 3.36793 9.90812 2.79805 9.59082V9.64082C2.80293 10.5857 3.13404 11.4999 3.73536 12.2288C4.33668 12.9577 5.1713 13.4565 6.09805 13.6408C5.7413 13.7494 5.37092 13.8066 4.99805 13.8108C4.73994 13.8078 4.48247 13.7844 4.22805 13.7408C4.49196 14.5536 5.00267 15.264 5.68912 15.773C6.37557 16.282 7.20362 16.5644 8.05805 16.5808C6.61525 17.7161 4.83393 18.3357 2.99805 18.3408C2.66378 18.3419 2.32978 18.3219 1.99805 18.2808C3.87248 19.4911 6.05686 20.1335 8.28805 20.1308C9.82774 20.1468 11.3552 19.8558 12.7812 19.2749C14.2071 18.694 15.5031 17.8347 16.5933 16.7473C17.6834 15.6599 18.546 14.3662 19.1306 12.9417C19.7152 11.5172 20.0101 9.99055 19.998 8.45082C19.998 8.28082 19.998 8.10082 19.998 7.92082C20.7827 7.33563 21.4595 6.61825 21.998 5.80082Z" fill="white"/>
</g>
<defs>
<clipPath id="clip0_2_726">
<rect width="23.9985" height="24" fill="white" transform="translate(-0.00439453)"/>
</clipPath>
</defs>
</svg>
