<svg width="24" height="18" viewBox="0 0 24 18" fill="none" xmlns="http://www.w3.org/2000/svg">
<path d="M12.0765 0.57074H12.21C13.443 0.57524 19.6905 0.62024 21.375 1.07324C21.8842 1.21149 22.3483 1.48097 22.7207 1.85475C23.0932 2.22853 23.361 2.69352 23.4975 3.20324C23.649 3.77324 23.7555 4.52774 23.8275 5.30624L23.8425 5.46224L23.8755 5.85224L23.8875 6.00824C23.985 7.37924 23.997 8.66324 23.9985 8.94374V9.05624C23.997 9.34724 23.9835 10.7182 23.8755 12.1462L23.8635 12.3037L23.85 12.4597C23.775 13.3177 23.664 14.1697 23.4975 14.7967C23.3615 15.3067 23.0938 15.7719 22.7212 16.1457C22.3487 16.5196 21.8844 16.7889 21.375 16.9267C19.635 17.3947 13.0215 17.4277 12.105 17.4292H11.892C11.4285 17.4292 9.5115 17.4202 7.5015 17.3512L7.2465 17.3422L7.116 17.3362L6.8595 17.3257L6.603 17.3152C4.938 17.2417 3.3525 17.1232 2.622 16.9252C2.11273 16.7875 1.6486 16.5184 1.27609 16.1449C0.903575 15.7713 0.63577 15.3064 0.4995 14.7967C0.333 14.1712 0.222 13.3177 0.147 12.4597L0.135 12.3022L0.123 12.1462C0.0489714 11.1298 0.0079498 10.1113 0 9.09224L0 8.90774C0.003 8.58524 0.015 7.47074 0.096 6.24074L0.1065 6.08624L0.111 6.00824L0.123 5.85224L0.156 5.46224L0.171 5.30624C0.243 4.52774 0.3495 3.77174 0.501 3.20324C0.63704 2.69331 0.904743 2.22811 1.27727 1.85426C1.6498 1.48042 2.11405 1.21108 2.6235 1.07324C3.354 0.87824 4.9395 0.75824 6.6045 0.68324L6.8595 0.67274L7.1175 0.66374L7.2465 0.65924L7.503 0.64874C8.93056 0.602802 10.3587 0.577299 11.787 0.57224H12.0765V0.57074ZM9.6 5.38574V12.6127L15.8355 9.00074L9.6 5.38574Z" fill="white"/>
</svg>
